<svg width="150" height="45" viewBox="0 0 150 45" fill="none" xmlns="http://www.w3.org/2000/svg">
<g clip-path="url(#clip0_1316_1643)">
<rect width="150" height="45" rx="6" fill="#26559A"/>
<path d="M0 0H150V45H0" fill="#26559A"/>
<path d="M76.6715 22.4419C75.8745 22.4419 75.3006 22.7036 74.718 22.9701V29.0058C75.2766 29.0605 75.5944 29.0605 76.1251 29.0605C78.0377 29.0605 78.2993 28.1818 78.2993 26.957V24.0736C78.2993 23.1688 78 22.4419 76.6715 22.4419ZM63.9721 22.1123C62.6451 22.1123 62.3434 22.8424 62.3434 23.7464V24.2537H65.6007V23.7464C65.6003 22.842 65.2974 22.1123 63.9721 22.1123ZM39.3714 28.3951C39.3714 29.1094 39.7077 29.4812 40.4509 29.4812C41.2483 29.4812 41.7197 29.221 42.3018 28.9525V27.5219H40.5585C39.7336 27.5223 39.3714 27.6752 39.3714 28.3951ZM89.0252 22.4419C87.6963 22.4419 87.2359 23.1688 87.2359 24.0728V27.376C87.2359 28.2835 87.6963 29.0113 89.0252 29.0113C90.3502 29.0113 90.8145 28.2827 90.8145 27.376V24.0728C90.8141 23.1688 90.3502 22.4419 89.0252 22.4419ZM32.8585 32.0973H28.9531V22.6212H27V19.3551H28.9531V17.3946C28.9531 14.7304 30.0553 13.146 33.1853 13.146H35.7928V16.4122H34.1642C32.9449 16.4122 32.864 16.8687 32.864 17.7202L32.8585 19.3547H35.8117L35.466 22.6209H32.8585V32.0973ZM46.21 32.1217H42.9543L42.8145 31.2962C41.3273 32.1217 40.0003 32.2558 39.1251 32.2558C36.7368 32.2558 35.4664 30.6572 35.4664 28.4463C35.4664 25.8385 36.9489 24.907 39.602 24.907H42.3022V24.3432C42.3022 23.0111 42.1498 22.6209 40.1072 22.6209H36.7666L37.0935 19.3547H40.7443C45.2272 19.3547 46.21 20.7751 46.21 24.3696V32.1217ZM57.2812 22.8609C55.2554 22.5124 54.6733 22.436 53.6991 22.436C51.9479 22.436 51.4184 22.8235 51.4184 24.3133V27.1328C51.4184 28.623 51.9479 29.0117 53.6991 29.0117C54.6733 29.0117 55.2554 28.9348 57.2812 28.5851V31.7697C55.506 32.1694 54.3504 32.2739 53.3738 32.2739C49.1789 32.2739 47.513 30.0635 47.513 26.8694V24.5813C47.513 21.3857 49.1789 19.1706 53.3738 19.1706C54.3504 19.1706 55.5068 19.2766 57.2812 19.676V22.8609ZM69.5061 26.8694H62.343V27.1328C62.343 28.623 62.8726 29.0117 64.623 29.0117C66.1974 29.0117 67.1574 28.9348 69.1797 28.5851V31.7697C67.2297 32.1694 66.2139 32.2739 64.2993 32.2739C60.1048 32.2739 58.4369 30.0635 58.4369 26.8694V24.2533C58.4369 21.4599 59.675 19.1706 63.9725 19.1706C68.2707 19.1706 69.5065 21.4326 69.5065 24.2533L69.5061 26.8694ZM82.2051 26.9294C82.2051 30.0162 81.3252 32.2676 75.9935 32.2676C74.0695 32.2676 72.9385 32.0973 70.813 31.7693V14.1264L74.718 13.474V19.6448C75.5614 19.3302 76.6546 19.171 77.6488 19.171C81.555 19.171 82.2055 20.9265 82.2055 23.7456V26.9294H82.2051ZM94.7242 26.9968C94.7242 29.6594 93.6271 32.2424 89.0382 32.2424C84.4465 32.2424 83.3294 29.6594 83.3294 26.9968V24.426C83.3294 21.7626 84.4465 19.1792 89.0382 19.1792C93.6271 19.1792 94.7242 21.7626 94.7242 24.426V26.9968ZM107.233 26.9968C107.233 29.6594 106.135 32.2424 101.547 32.2424C96.9558 32.2424 95.8379 29.6594 95.8379 26.9968V24.426C95.8379 21.7626 96.9558 19.1792 101.547 19.1792C106.135 19.1792 107.233 21.7626 107.233 24.426V26.9968ZM120.072 32.0973H115.838L112.258 26.1086V32.0973H108.353V14.1264L112.258 13.474V25.043L115.838 19.3551H120.072L116.163 25.5618L120.072 32.0973ZM101.534 22.4419C100.208 22.4419 99.7472 23.1688 99.7472 24.0728V27.376C99.7472 28.2835 100.208 29.0113 101.534 29.0113C102.859 29.0113 103.328 28.2827 103.328 27.376V24.0728C103.328 23.1688 102.859 22.4419 101.534 22.4419ZM122.302 29.8628C122.96 29.8628 123.484 30.4001 123.484 31.0711C123.484 31.7527 122.96 32.2845 122.297 32.2845C121.639 32.2845 121.104 31.7523 121.104 31.0711C121.104 30.4001 121.639 29.8628 122.297 29.8628H122.302ZM122.296 30.0508C121.767 30.0508 121.333 30.5074 121.333 31.0719C121.333 31.6463 121.767 32.0981 122.302 32.0981C122.837 32.1036 123.265 31.6463 123.265 31.077C123.265 30.5082 122.837 30.0508 122.302 30.0508H122.296ZM122.071 31.7756H121.858V30.4265C121.97 30.4104 122.077 30.395 122.237 30.395C122.441 30.395 122.574 30.4372 122.655 30.4967C122.735 30.5562 122.777 30.6473 122.777 30.7762C122.777 30.9532 122.66 31.0609 122.516 31.1042V31.1149C122.634 31.1366 122.714 31.2426 122.74 31.4413C122.772 31.6514 122.804 31.7322 122.826 31.7756H122.601C122.569 31.733 122.536 31.6084 122.511 31.4322C122.478 31.2596 122.393 31.1949 122.221 31.1949H122.071V31.7756H122.071ZM122.071 31.0285H122.227C122.402 31.0285 122.553 30.9639 122.553 30.7975C122.553 30.6785 122.467 30.5606 122.227 30.5606C122.157 30.5606 122.108 30.5665 122.071 30.5712V31.0285Z" fill="white"/>
</g>
<defs>
<clipPath id="clip0_1316_1643">
<rect width="150" height="45" rx="6" fill="white"/>
</clipPath>
</defs>
</svg>
