<svg width="24" height="24" viewBox="0 0 24 24" fill="none" xmlns="http://www.w3.org/2000/svg">
<g clip-path="url(#clip0_1162_1524)">
<path fill-rule="evenodd" clip-rule="evenodd" d="M0 0H45.6004V1.84617H0V0ZM0 3.69234H45.6004V5.53852H0V3.69234ZM0 7.38469H45.6004V9.23086H0V7.38469ZM0 11.077H45.6004V12.9232H0V11.077ZM0 14.7694H45.6004V16.6155H0V14.7694ZM0 18.4617H45.6004V20.3079H0V18.4617ZM0 22.1541H45.6004V24.0002H0V22.1541Z" fill="#BD3D44"/>
<path fill-rule="evenodd" clip-rule="evenodd" d="M0 1.84618H45.6004V3.69235H0V1.84618ZM0 5.53852H45.6004V7.38469H0V5.53852ZM0 9.23086H45.6004V11.077H0V9.23086ZM0 12.9232H45.6004V14.7694H0V12.9232ZM0 16.6155H45.6004V18.4617H0V16.6155ZM0 20.3079H45.6004V22.1541H0V20.3079Z" fill="white"/>
<path fill-rule="evenodd" clip-rule="evenodd" d="M0 0H18.2402V12.9232H0V0Z" fill="#192F5D"/>
<path fill-rule="evenodd" clip-rule="evenodd" d="M1.51511 0.553848L1.69973 1.07078H2.21666L1.79204 1.38463L1.9582 1.88309L1.51511 1.56924L1.10896 1.88309L1.27511 1.38463L0.832031 1.07078H1.38588L1.51511 0.553848ZM4.5613 0.553848L4.72745 1.07078H5.26285L4.81976 1.38463L5.00438 1.88309L4.5613 1.56924L4.11822 1.88309L4.30284 1.38463L3.85975 1.07078H4.39514L4.5613 0.553848ZM7.60748 0.553848L7.77364 1.07078H8.30903L7.86595 1.38463L8.05056 1.88309L7.60748 1.56924L7.1644 1.88309L7.34902 1.38463L6.90594 1.07078H7.44133L7.60748 0.553848ZM10.6352 0.553848L10.8198 1.07078H11.3368L10.9121 1.38463L11.0783 1.88309L10.6352 1.56924L10.2106 1.88309L10.3767 1.38463L9.93366 1.07078H10.4875L10.6352 0.553848ZM13.6814 0.553848L13.8475 1.07078H14.3829L13.9399 1.38463L14.1245 1.88309L13.6629 1.56924L13.2383 1.88309L13.4045 1.38463L12.9614 1.07078H13.4968L13.6814 0.553848ZM16.7276 0.553848L16.8937 1.07078H17.4291L16.986 1.38463L17.1707 1.88309L16.7276 1.56924L16.2845 1.88309L16.4691 1.38463L16.026 1.07078H16.5614L16.7276 0.553848ZM3.04744 1.84617L3.21359 2.3631H3.74898L3.3059 2.67695L3.49052 3.17541L3.04744 2.86156L2.60436 3.17541L2.78897 2.67695L2.34589 2.3631H2.88128L3.04744 1.84617ZM6.07516 1.84617L6.25978 2.3631H6.77671L6.35209 2.67695L6.51824 3.17541L6.07516 2.86156L5.65054 3.17541L5.8167 2.67695L5.37362 2.3631H5.92747L6.07516 1.84617ZM9.12135 1.84617L9.2875 2.3631H9.82289L9.37981 2.67695L9.56443 3.17541L9.12135 2.86156L8.67826 3.17541L8.86288 2.67695L8.4198 2.3631H8.95519L9.12135 1.84617ZM12.1675 1.84617L12.3337 2.3631H12.8691L12.426 2.67695L12.6106 3.17541L12.1675 2.86156L11.7244 3.17541L11.9091 2.67695L11.466 2.3631H12.0014L12.1675 1.84617ZM15.1953 1.84617L15.3799 2.3631H15.8783L15.4537 2.67695L15.6199 3.17541L15.1768 2.86156L14.7522 3.17541L14.9183 2.67695L14.4752 2.3631H15.0291L15.1953 1.84617ZM1.53358 3.13849L1.68127 3.65542H2.23512L1.79204 3.96927L1.9582 4.46773L1.51511 4.15388L1.10896 4.46773L1.27511 3.96927L0.832031 3.65542H1.38588L1.53358 3.13849ZM4.5613 3.13849L4.72745 3.65542H5.26285L4.83823 3.96927L5.00438 4.46773L4.5613 4.15388L4.13668 4.46773L4.30284 3.96927L3.85975 3.65542H4.39514L4.5613 3.13849ZM7.60748 3.13849L7.77364 3.65542H8.30903L7.86595 3.96927L8.05056 4.46773L7.60748 4.15388L7.1644 4.46773L7.34902 3.96927L6.90594 3.65542H7.44133L7.60748 3.13849ZM10.6352 3.13849L10.8198 3.65542H11.3368L10.9121 3.96927L11.0783 4.46773L10.6352 4.15388L10.2106 4.46773L10.3767 3.96927L9.93366 3.65542H10.4875L10.6352 3.13849ZM13.6814 3.13849L13.8475 3.65542H14.3829L13.9583 3.96927L14.1245 4.46773L13.6814 4.15388L13.2568 4.46773L13.4229 3.96927L12.9798 3.65542H13.5152L13.6814 3.13849ZM16.7276 3.13849L16.8937 3.65542H17.4291L16.986 3.96927L17.1707 4.46773L16.7276 4.15388L16.2845 4.46773L16.4691 3.96927L16.026 3.65542H16.5614L16.7276 3.13849ZM3.04744 4.43081L3.21359 4.94774H3.74898L3.3059 5.26159L3.49052 5.76005L3.04744 5.4462L2.60436 5.76005L2.78897 5.26159L2.34589 4.94774H2.88128L3.04744 4.43081ZM6.07516 4.43081L6.25978 4.94774H6.77671L6.35209 5.26159L6.51824 5.76005L6.07516 5.4462L5.65054 5.76005L5.8167 5.26159L5.37362 4.94774H5.92747L6.07516 4.43081ZM9.12135 4.43081L9.2875 4.94774H9.82289L9.39827 5.26159L9.56443 5.76005L9.12135 5.4462L8.69673 5.76005L8.86288 5.26159L8.4198 4.94774H8.95519L9.12135 4.43081ZM12.1675 4.43081L12.3337 4.94774H12.8691L12.426 5.26159L12.6106 5.76005L12.1675 5.4462L11.7244 5.76005L11.9091 5.26159L11.466 4.94774H12.0014L12.1675 4.43081ZM15.1953 4.43081L15.3799 4.94774H15.8783L15.4537 5.26159L15.6199 5.76005L15.1768 5.4462L14.7522 5.76005L14.9183 5.26159L14.4752 4.94774H15.0291L15.1953 4.43081ZM1.53358 5.72313L1.68127 6.24006H2.23512L1.79204 6.55391L1.9582 7.05237L1.51511 6.73852L1.10896 7.05237L1.27511 6.55391L0.832031 6.24006H1.38588L1.53358 5.72313ZM4.5613 5.72313L4.72745 6.24006H5.26285L4.83823 6.55391L5.00438 7.05237L4.5613 6.73852L4.13668 7.05237L4.30284 6.55391L3.85975 6.24006H4.39514L4.5613 5.72313ZM7.60748 5.72313L7.77364 6.24006H8.30903L7.86595 6.55391L8.05056 7.05237L7.60748 6.73852L7.1644 7.05237L7.34902 6.55391L6.90594 6.24006H7.44133L7.60748 5.72313ZM10.6352 5.72313L10.8198 6.24006H11.3368L10.9121 6.55391L11.0783 7.05237L10.6352 6.73852L10.2106 7.05237L10.3767 6.55391L9.93366 6.24006H10.4875L10.6352 5.72313ZM13.6814 5.72313L13.8475 6.24006H14.3829L13.9583 6.55391L14.1245 7.05237L13.6814 6.73852L13.2568 7.05237L13.4229 6.55391L12.9798 6.24006H13.5152L13.6814 5.72313ZM16.7276 5.72313L16.8937 6.24006H17.4291L16.986 6.55391L17.1707 7.05237L16.7276 6.73852L16.2845 7.05237L16.4691 6.55391L16.026 6.24006H16.5614L16.7276 5.72313ZM3.04744 7.01545L3.21359 7.53238H3.74898L3.3059 7.84622L3.49052 8.34469L3.04744 8.03084L2.60436 8.34469L2.78897 7.84622L2.34589 7.53238H2.88128L3.04744 7.01545ZM6.07516 7.01545L6.25978 7.53238H6.77671L6.35209 7.84622L6.51824 8.34469L6.07516 8.03084L5.65054 8.34469L5.8167 7.84622L5.37362 7.53238H5.92747L6.07516 7.01545ZM9.12135 7.01545L9.2875 7.53238H9.82289L9.39827 7.84622L9.56443 8.34469L9.12135 8.03084L8.69673 8.34469L8.86288 7.84622L8.4198 7.53238H8.95519L9.12135 7.01545ZM12.1675 7.01545L12.3337 7.53238H12.8691L12.426 7.84622L12.6106 8.34469L12.1675 8.03084L11.7244 8.34469L11.9091 7.84622L11.466 7.53238H12.0014L12.1675 7.01545ZM15.1953 7.01545L15.3799 7.53238H15.8783L15.4537 7.84622L15.6199 8.34469L15.1768 8.03084L14.7522 8.34469L14.9183 7.84622L14.4752 7.53238H15.0291L15.1953 7.01545ZM1.53358 8.30777L1.68127 8.8247H2.23512L1.79204 9.13855L1.9582 9.63701L1.51511 9.32316L1.10896 9.63701L1.27511 9.13855L0.832031 8.8247H1.38588L1.53358 8.30777ZM4.5613 8.30777L4.72745 8.8247H5.26285L4.83823 9.13855L5.00438 9.63701L4.5613 9.32316L4.13668 9.63701L4.30284 9.13855L3.85975 8.8247H4.39514L4.5613 8.30777ZM7.60748 8.30777L7.77364 8.8247H8.30903L7.86595 9.13855L8.05056 9.63701L7.60748 9.32316L7.1644 9.63701L7.34902 9.13855L6.90594 8.8247H7.44133L7.60748 8.30777ZM10.6352 8.30777L10.8198 8.8247H11.3368L10.9121 9.13855L11.0783 9.63701L10.6352 9.32316L10.2106 9.63701L10.3767 9.13855L9.93366 8.8247H10.4875L10.6352 8.30777ZM13.6814 8.30777L13.8475 8.8247H14.3829L13.9583 9.13855L14.1245 9.63701L13.6814 9.32316L13.2568 9.63701L13.4229 9.13855L12.9798 8.8247H13.5152L13.6814 8.30777ZM16.7276 8.30777L16.8937 8.8247H17.4291L16.986 9.13855L17.1707 9.63701L16.7276 9.32316L16.2845 9.63701L16.4691 9.13855L16.026 8.8247H16.5614L16.7276 8.30777ZM3.04744 9.60009L3.21359 10.117H3.74898L3.3059 10.4309L3.49052 10.9293L3.04744 10.6155L2.60436 10.9293L2.78897 10.4309L2.34589 10.117H2.88128L3.04744 9.60009ZM6.07516 9.60009L6.25978 10.117H6.77671L6.35209 10.4309L6.51824 10.9293L6.07516 10.6155L5.65054 10.9293L5.8167 10.4309L5.37362 10.117H5.92747L6.07516 9.60009ZM9.12135 9.60009L9.2875 10.117H9.82289L9.39827 10.4309L9.56443 10.9293L9.12135 10.6155L8.69673 10.9293L8.86288 10.4309L8.4198 10.117H8.95519L9.12135 9.60009ZM12.1675 9.60009L12.3337 10.117H12.8691L12.426 10.4309L12.6106 10.9293L12.1675 10.6155L11.7244 10.9293L11.9091 10.4309L11.466 10.117H12.0014L12.1675 9.60009ZM15.1953 9.60009L15.3799 10.117H15.8783L15.4537 10.4309L15.6199 10.9293L15.1768 10.6155L14.7522 10.9293L14.9183 10.4309L14.4752 10.117H15.0291L15.1953 9.60009ZM1.53358 10.8924L1.68127 11.4093H2.23512L1.79204 11.7232L1.9582 12.2217L1.51511 11.9078L1.10896 12.2217L1.27511 11.7232L0.832031 11.4093H1.38588L1.53358 10.8924ZM4.5613 10.8924L4.72745 11.4093H5.26285L4.83823 11.7232L5.00438 12.2217L4.5613 11.9078L4.13668 12.2217L4.30284 11.7232L3.85975 11.4093H4.39514L4.5613 10.8924ZM7.60748 10.8924L7.77364 11.4093H8.30903L7.86595 11.7232L8.05056 12.2217L7.60748 11.9078L7.1644 12.2217L7.34902 11.7232L6.90594 11.4093H7.44133L7.60748 10.8924ZM10.6352 10.8924L10.8198 11.4093H11.3368L10.9121 11.7232L11.0783 12.2217L10.6352 11.9078L10.2106 12.2217L10.3767 11.7232L9.93366 11.4093H10.4875L10.6352 10.8924ZM13.6814 10.8924L13.8475 11.4093H14.3829L13.9583 11.7232L14.1245 12.2217L13.6814 11.9078L13.2568 12.2217L13.4229 11.7232L12.9798 11.4093H13.5152L13.6814 10.8924ZM16.7276 10.8924L16.8937 11.4093H17.4291L16.986 11.7232L17.1707 12.2217L16.7276 11.9078L16.2845 12.2217L16.4691 11.7232L16.026 11.4093H16.5614L16.7276 10.8924Z" fill="white"/>
</g>
<defs>
<clipPath id="clip0_1162_1524">
<rect width="24" height="24" rx="12" fill="white"/>
</clipPath>
</defs>
</svg>
