<svg width="63" height="73" viewBox="0 0 63 73" fill="none" xmlns="http://www.w3.org/2000/svg">
<path fill-rule="evenodd" clip-rule="evenodd" d="M56.2762 12.0013C56.4296 12.0785 56.5659 12.1795 56.6965 12.3102C56.7306 12.3459 56.759 12.3815 56.7874 12.4172C58.4289 13.7777 60.0704 15.3165 61.2631 17.1702C62.5809 19.2199 63.3136 21.5905 62.8705 24.4007C62.6831 25.577 62.2571 26.6049 61.6096 27.5139C61.1439 28.1615 60.5759 28.7318 59.9056 29.2309C59.8716 30.1399 59.8602 31.0311 59.8602 31.9163C59.8659 33.0511 59.9 34.2215 59.9624 35.4217C60.1044 38.2378 60.5077 41.0777 60.911 43.8939C61.3426 46.9239 61.7743 49.9302 61.8879 53.0612C62.0413 57.0715 61.5869 60.3689 60.3203 62.6979C58.9117 65.3002 56.6227 66.6904 53.2488 66.5656C49.2218 66.4884 46.7454 64.1238 45.6264 59.757C44.6495 55.9368 44.7972 50.4827 45.9047 43.6206C45.8707 38.1843 45.1948 34.0671 43.8543 31.2925C42.9796 29.4804 41.7925 28.2803 40.293 27.7099V63.3098C40.7815 63.5534 41.2245 63.8861 41.5994 64.2842C42.4627 65.1873 43.0023 66.4409 43.0023 67.8192V71.3721C43.0023 72.2692 42.3037 73 41.446 73H1.55629C0.698625 73 0 72.2692 0 71.3721V67.8192C0 66.4409 0.539588 65.1932 1.40293 64.2842C1.66988 64.005 1.97092 63.7554 2.29467 63.5475V8.62668C2.29467 6.25018 3.22049 4.09351 4.7143 2.53097C6.2081 0.968422 8.2699 0 10.5418 0H32.0004C34.278 0 36.3512 0.974363 37.8507 2.54285C39.3502 4.11134 40.2817 6.27989 40.2817 8.66827V24.3294C43.0421 24.9591 45.1493 26.8069 46.6147 29.8369C48.1881 33.0868 48.9719 37.7447 48.9946 43.775C48.9946 43.8701 48.9889 43.9652 48.9719 44.0543H48.9776C47.9268 50.5124 47.7564 55.5506 48.6197 58.9193C49.3411 61.7532 50.8633 63.2861 53.2999 63.3217H53.3283C55.4072 63.393 56.7874 62.5969 57.5996 61.0938C58.5595 59.3233 58.8946 56.6081 58.764 53.186C58.6561 50.2866 58.2301 47.3339 57.8098 44.3632C57.4008 41.4996 56.9919 38.6121 56.8385 35.5821C56.776 34.3879 56.7419 33.1699 56.7363 31.9104C56.7306 30.9123 56.7476 29.926 56.7874 28.9576C53.885 26.2959 52.1185 23.6342 51.5733 20.9845C51.0564 18.4713 51.6017 16.0592 53.2772 13.754C51.9993 12.839 50.6986 12.0904 49.3808 11.4904C47.5803 10.6705 47.569 10.5992 45.6832 10.2783C44.8369 10.1358 44.2633 9.29804 44.3996 8.41279C44.5359 7.52755 45.3368 6.92748 46.1831 7.07007C48.3187 7.43249 48.5743 7.57508 50.6247 8.50785C52.5729 9.39904 54.453 10.5457 56.2762 12.0013ZM55.7593 15.7443C54.6745 17.2652 54.311 18.7862 54.629 20.319C55.0096 22.1727 56.333 24.1452 58.5368 26.2306C58.7583 26.0226 58.9571 25.8028 59.1218 25.5711C59.4683 25.0899 59.7012 24.5254 59.7977 23.8838C60.0931 22.0063 59.5876 20.3963 58.6788 18.9823C57.929 17.8118 56.8839 16.7305 55.7593 15.7443ZM12.4162 7.45031H30.4896C31.4267 7.45031 32.2787 7.84838 32.8978 8.49597C32.9376 8.5435 32.983 8.58509 33.0228 8.63856C33.5681 9.27427 33.9032 10.112 33.9032 11.0151V23.0758C33.9032 24.0561 33.5226 24.9532 32.9035 25.5949C32.2901 26.2365 31.4381 26.6405 30.4952 26.6405H12.4162C11.4847 26.6405 10.6384 26.2365 10.0136 25.5949L10.0079 25.6008C9.39451 24.9591 9.00828 24.062 9.00828 23.0817V11.0091C9.00828 10.0288 9.38883 9.13763 10.0079 8.49003C10.0534 8.44844 10.0931 8.40091 10.1443 8.36526C10.752 7.79491 11.5472 7.45031 12.4162 7.45031ZM38.8674 66.2329C38.8219 66.2389 38.7822 66.2389 38.7367 66.2389H4.12359C3.93047 66.328 3.7544 66.4528 3.60672 66.6072C3.30569 66.9221 3.11825 67.3558 3.11825 67.8371V69.762H39.8898V67.8371C39.8898 67.3618 39.7023 66.9281 39.4013 66.6072C39.2479 66.4468 39.0662 66.3221 38.8674 66.2329Z" fill="#46DBBF"/>
</svg>
