<svg width="150" height="45" viewBox="0 0 150 45" fill="none" xmlns="http://www.w3.org/2000/svg">
<rect width="150" height="45" rx="6" fill="#7463B8"/>
<path d="M30.7298 9C29.8153 9 28.6297 9.96164 27.9303 10.6018C26.3927 11.9552 25 14.4439 25 16.4414C25 19.2798 27.4343 20.3512 28.05 20.3512C28.253 20.3512 28.4261 20.2473 28.4261 19.9742C28.4261 19.7601 28.2892 19.5819 28.1529 19.3989C27.5892 18.5442 27.4081 17.7286 27.4081 16.6285C27.4081 14.3349 28.4749 12.2325 29.3598 11.2705C29.5229 11.0964 29.8916 10.7203 30.0019 10.7203C30.1114 10.7203 30.1385 10.8087 30.1385 11.0821L30.0357 26.0944C30.0357 28.4412 29.3528 29.3735 29.3528 29.9261C29.3528 30.1689 29.4589 30.2319 29.6613 30.2319C30.6196 30.2319 31.5747 29.0736 31.8452 28.6512C32.6843 27.2141 32.8901 26.0922 32.8901 22.8563V10.2415C32.8901 9.9 32.7935 9.7524 32.4664 9.54187C31.988 9.24061 31.4398 9 30.7298 9ZM58.1315 9.04189C57.6808 9.04189 57.4881 9.27555 57.4667 9.99856L57.3667 12.9923L54.7264 12.9015C54.5662 12.8975 54.4939 12.9477 54.4238 13.0873C54.1996 13.5042 54.0816 13.8308 54.0816 14.3748C54.0816 14.8177 54.2841 14.8649 54.4646 14.8649L57.2118 14.9431L57.2034 20.6627C57.2034 21.8757 56.4314 23.4494 55.0616 24.7583C55.0616 24.7583 55.1794 24.3631 55.1727 23.9485C55.1727 22.7749 54.4111 21.7114 53.3957 20.9588L50.9173 19.11C51.4368 18.5141 52.317 17.3321 52.317 16.334C52.317 15.5602 51.8263 15.2351 50.9116 15.2351C49.6206 15.2351 48.1234 16.4075 48.1234 18.1465C48.1234 18.7804 48.4078 19.3509 48.8401 19.7873C48.2432 20.9103 47.3987 22.3879 46.7716 23.4402C46.2979 24.2459 45.4966 25.4803 45.0225 25.4803C44.673 25.4803 44.5114 24.9349 44.5114 22.8397C44.5114 21.099 44.6361 19.2064 44.6987 17.3897C44.6987 16.9733 44.6298 16.5892 44.0847 16.2126C43.5832 15.894 42.9638 15.449 42.3259 15.449C40.9077 15.449 39.9415 16.743 39.2788 18.0084C38.5929 19.3199 38.222 20.425 37.6988 22.0285L37.7565 16.5101C37.7744 16.1166 37.6742 15.9638 37.3566 15.8299C36.9447 15.6567 36.3384 15.457 35.8006 15.457C35.3511 15.457 35.2965 15.6492 35.2965 16.1175L35.236 22.7391L35.2291 25.293C35.2291 27.5955 35.5199 27.9795 36.8978 27.9795C37.6606 27.9795 37.905 27.8906 37.9201 27.2618C37.941 26.8459 38.1416 25.8383 38.413 24.8278C39.2067 21.8452 40.1471 19.4862 41.7687 17.6882C41.9377 17.5137 42.0685 17.5761 42.0418 17.8236C42.0418 17.8236 41.7855 21.86 41.7855 23.511C41.7855 26.4474 42.2411 27.9796 43.7145 27.9796C45.1605 27.9796 46.5808 26.1372 47.356 24.8935L49.843 20.7686C51.4545 22.1302 52.5791 23.186 52.5791 24.4703C52.5791 25.2686 52.0711 26.0495 51.2975 26.0495C50.3306 26.0495 49.7129 25.0385 49.0598 25.0385C48.5178 25.0385 47.8221 26.0761 47.8221 26.6654C47.8221 27.2216 49.0462 28.0086 51.2426 28.0086C54.485 28.0086 56.2243 25.8021 57.2681 23.3587C57.4679 26.2587 58.6332 27.9527 60.4506 27.9527C61.6427 27.9527 63.0205 26.4592 63.6472 24.6349C63.6472 24.6349 63.7091 25.1085 64.185 26.0787C64.8402 27.3458 65.8362 27.9276 67.0733 27.9276C68.6121 27.9276 69.9282 27.0025 70.7317 25.4504C70.8535 26.6265 71.8494 27.9218 73.4509 27.9218C74.4562 27.9218 75.3727 27.158 75.9743 25.8999C75.9743 25.8999 76.7536 27.9778 79.0076 27.9778C80.2735 27.9778 81.7726 26.8148 82.1309 25.9698L82.1703 27.1987L78.8261 30.2568C77.855 31.1916 76.8221 32.5346 76.8221 34.0215C76.8221 35.9126 78.6227 37 80.2073 37C81.8544 37 82.9473 35.9652 83.546 35.0982C84.2994 33.9762 84.6177 31.8617 84.6177 29.7947L84.543 26.6865C86.7969 24.2297 88.561 20.8339 89.3463 18.4312L91.0572 18.3865C91.3886 18.3644 91.3721 18.4938 91.3263 18.6854C91.0256 19.9454 90.763 21.3724 90.763 22.7935C90.763 25.1413 91.3083 26.163 92.0922 26.998C92.7738 27.6976 93.4516 27.9335 94.165 27.9335C95.5602 27.9335 96.4361 26.791 96.7138 26.0708C97.369 27.3379 98.3342 27.928 99.571 27.928C101.11 27.928 102.426 27.0029 103.23 25.4508C103.351 26.6269 104.347 27.9222 105.949 27.9222C107.145 27.9222 107.839 27.2376 108.385 25.9477C108.396 26.3626 108.412 26.8049 108.424 27.2196C108.439 27.4342 108.612 27.57 108.767 27.626C109.275 27.8169 109.722 27.9124 110.123 27.9124C111.168 27.9124 111.396 27.6994 111.396 27.0214C111.396 25.9032 111.429 24.1365 111.749 22.718C112.089 21.3057 112.603 19.7069 113.311 18.5945C113.375 18.4795 113.531 18.5097 113.538 18.649C113.639 21.0291 113.8 25.0583 114.43 26.1014C114.742 26.5989 115.223 26.9615 115.943 26.9615C116.28 26.9615 116.694 26.8187 116.8 26.7297C116.908 26.6467 116.962 26.5545 116.955 26.3835C116.955 23.3407 117.912 20.3949 118.87 18.4144C118.897 18.3556 118.971 18.3511 118.969 18.4284L118.915 20.6208C118.915 24.2216 119.177 26.4964 120.991 27.5901C121.348 27.7879 121.75 27.8913 122.158 27.8901C123.086 27.8901 123.928 27.3762 124.344 26.5496C124.683 25.9073 125 24.671 125 23.9707C125 23.6996 125.003 23.2584 124.555 23.2584C124.309 23.2584 124.162 23.4381 124.103 23.7095C123.96 24.2977 123.843 24.8021 123.621 25.3837C123.409 25.9389 123.093 26.2622 122.719 26.2622C122.278 26.2622 122.055 25.9186 121.927 25.7063C121.365 24.8566 121.32 22.9048 121.32 21.2756L121.456 17.0823C121.456 16.7354 121.31 16.3202 120.77 16.0141C120.407 15.8072 119.491 15.4178 118.929 15.4178C118.409 15.4178 118.156 15.7102 117.969 16.1395C117.616 16.9106 116.439 19.935 116.123 22.3939C116.111 22.4587 116.03 22.4724 116.024 22.3897C115.86 20.6508 115.776 18.5557 115.778 17.1423C115.778 16.715 115.672 16.1041 114.758 15.7082C114.314 15.5255 113.946 15.4136 113.498 15.4136C112.941 15.4136 112.821 15.6838 112.622 16.0419C111.991 17.1975 111.555 18.7044 110.901 20.6053L110.911 16.2557C110.911 16.0523 110.785 15.7857 110.425 15.7139C109.532 15.5104 109.119 15.418 108.766 15.418C108.51 15.418 108.369 15.6206 108.369 15.8397L108.321 23.2558C108.149 24.1637 107.449 26.3307 106.455 26.3307C105.64 26.3307 105.26 25.5117 105.26 22.0886L105.408 16.5254C105.408 16.174 105.175 16.0264 104.836 15.8776C104.351 15.6866 103.966 15.6108 103.473 15.6108C102.855 15.6108 102.642 15.9043 102.768 16.6093C102.088 15.6973 101.408 15.1933 100.208 15.1933C97.7972 15.1933 95.9803 18.0684 95.9803 22.2465C95.9567 23.418 96.2422 24.5825 96.2422 24.5825C96.0241 25.5548 95.5113 26.3474 94.803 26.3474C93.9094 26.3474 93.34 25.0947 93.34 22.9235C93.34 20.7459 94.1764 18.2899 94.1764 17.6243C94.1764 16.8503 93.665 16.3607 92.7598 16.3607C92.3063 16.3607 90.6242 16.7391 89.7618 16.8632C89.7618 16.8632 89.8591 16.456 89.8519 16.1358C89.8519 15.3726 89.4908 14.8944 88.5944 14.8944C87.499 14.8944 86.6947 15.67 86.6947 16.9933C86.6947 17.587 87.0396 18.1363 87.496 18.4314C86.9035 20.8819 85.9402 22.7044 84.5206 24.7403L84.6402 16.4961C84.6402 16.2281 84.5682 16.0616 84.0388 15.8578C83.7589 15.7379 83.3027 15.5995 82.7278 15.5995C81.8944 15.5995 81.9496 16.1896 81.9941 16.6314C81.6129 15.961 80.7781 15.1652 79.4903 15.1652C75.981 15.1652 74.9037 20.4717 75.432 24.2402C75.432 24.6997 74.9795 26.3307 73.9576 26.3307C73.1425 26.3307 72.7621 25.5117 72.7621 22.0886L72.9115 16.5254C72.9115 16.1739 72.6772 16.0263 72.3382 15.8776C71.8534 15.6866 71.4691 15.6108 70.9764 15.6108C70.3579 15.6108 70.1457 15.9043 70.2708 16.6092C69.591 15.6972 68.9101 15.1932 67.7094 15.1932C65.299 15.1932 63.458 17.8226 63.458 22.0005C63.458 23.5953 62.0732 26.029 61.1022 26.029C60.5627 26.029 59.9884 25.047 59.9884 22.5381C59.9911 20.8279 60.2263 15.0061 60.2263 15.0061L63.6158 14.9516C63.7775 14.9501 63.8712 14.7748 63.9312 14.6668C64.0868 14.3536 64.1621 14.1451 64.1621 13.7704C64.1621 13.4323 64.0939 13.3088 63.6566 13.2844L60.2783 13.0833L60.4221 9.96253C60.4322 9.7655 60.3123 9.63706 60.0954 9.54087C59.4414 9.28726 58.6394 9.04199 58.1315 9.04189ZM68.3899 17.219C69.2937 17.219 70.2107 18.0363 70.2107 20.936C70.2107 24.587 68.8693 26.2857 67.8379 26.2857C66.8709 26.2857 66.1369 24.9323 66.1369 22.2739C66.1369 19.5868 66.8537 17.219 68.3899 17.219ZM100.936 17.219C101.839 17.219 102.756 18.0363 102.756 20.936C102.756 24.587 101.415 26.2857 100.384 26.2857C99.4165 26.2857 98.6824 24.9323 98.6824 22.2739C98.6825 19.5868 99.3993 17.219 100.936 17.219ZM80.2932 17.2358C81.4726 17.2358 81.9943 18.4412 81.9943 20.7782C81.9943 24.3017 80.9381 26.3078 79.6553 26.3078C78.8364 26.3078 77.8947 24.9744 77.9444 22.3519C77.9444 20.6751 78.4957 17.2358 80.2932 17.2358ZM82.2899 29.0226V30.4105C82.2899 35.0158 81.0524 35.8018 80.058 35.8018C79.6812 35.8018 78.7583 35.5196 78.7583 34.3803C78.7583 32.7877 80.4375 30.9759 80.9593 30.416L82.2899 29.0226Z" fill="white"/>
</svg>
