<svg width="122" height="65" viewBox="0 0 122 65" fill="none" xmlns="http://www.w3.org/2000/svg">
<path d="M121.396 40.6076H112.405C112.073 40.6076 111.802 40.8838 111.802 41.2237V44.1442C111.802 44.4835 112.073 44.7603 112.405 44.7603H121.396C121.729 44.7603 122 44.4835 122 44.1442V41.2237C122 40.8838 121.729 40.6076 121.396 40.6076Z" fill="#46DBBF"/>
<path d="M64.8521 42.4604C60.9084 42.4604 57.712 47.7554 57.712 54.2876C57.712 59.0271 59.3952 63.1128 61.8256 65C60.4055 62.8175 59.5164 59.7012 59.5164 56.2393C59.5164 49.6394 62.7466 44.289 66.7309 44.289C67.6556 44.289 68.5384 44.5798 69.3506 45.1047C68.1223 43.4522 66.5572 42.4604 64.8521 42.4604Z" fill="#46DBBF"/>
<path d="M48.0121 54.8374L6.2829 40.0024L47.6754 61.422H57.657C56.9554 59.4844 56.5312 57.2393 56.4749 54.8374H48.0121Z" fill="#46DBBF"/>
<path d="M87.1022 44.1448C87.1022 44.819 86.5668 45.3656 85.9064 45.3656H76.9137C76.2533 45.3656 75.7179 44.819 75.7179 44.1448V41.2225C75.7179 40.5489 76.2533 40.0024 76.9137 40.0024H85.9064C86.5668 40.0024 87.1022 40.5489 87.1022 41.2225V44.1448ZM62.3998 24.0563H84.6274V30.1127C75.8997 24.3197 62.3998 24.0563 62.3998 24.0563ZM61.6063 20.0496V9.81307C61.6063 9.28498 62.0287 8.85767 62.5467 8.86404L67.2476 8.91697L71.6374 21.0912L62.5273 20.9987C62.0175 20.9936 61.6063 20.5701 61.6063 20.0496ZM70.7227 8.95652L75.1118 21.1269L73.1013 21.1065L68.6771 8.93355L70.7227 8.95652ZM90.9853 9.18676L95.0758 18.9782L85.3053 21.2302L78.7325 21.1639L74.3102 8.99733L90.9853 9.18676ZM99.2438 20.8348L108.388 24.4453V47.8587H88.0282V23.259L99.2438 20.8348ZM120.714 48.168C120.714 47.4084 120.678 46.6749 120.607 45.9721H112.279C111.29 45.9721 110.488 45.1538 110.488 44.1442V41.2237C110.488 40.2141 111.29 39.3952 112.279 39.3952H118.228C117.168 38.1489 115.793 37.4403 114.146 37.4403H110.005V23.671L99.092 18.9788H96.2117L91.6151 8.44118L86.5968 8.26898C85.8889 5.99907 84.7112 2.73231 81.6465 2.4925C78.5813 2.25205 66.456 0 66.456 0L49.7003 0.906924V3.16408L58.7329 2.38279L71.6374 3.19725L58.8123 3.06141L49.7003 4.46838V53.6862H56.6505C56.6499 53.6454 56.648 53.6058 56.648 53.5657C56.648 46.6348 60.3062 41.0164 64.8184 41.0164C69.3306 41.0164 72.9882 46.6348 72.9882 53.5657C72.9882 54.4171 72.9326 55.2482 72.827 56.0518L77.0143 61.422L118.846 59.8224L121.321 55.8011V49.406H87.4221L120.714 48.168Z" fill="#46DBBF"/>
<path d="M45.4605 48.9882L44.5027 6.24271L12.5977 14.615L45.4605 4.85806V48.9882ZM0 16.1668C0.889079 16.0711 1.78691 16.022 2.69348 16.022C17.0406 16.022 29.3402 28.1796 34.5454 45.4784L14.5933 40.3028L48.0121 53.5312V0.928627L0 16.1668Z" fill="#46DBBF"/>
</svg>
