<svg width="59" height="74" viewBox="0 0 59 74" fill="none" xmlns="http://www.w3.org/2000/svg">
<g clip-path="url(#clip0_1_3554)">
<path fill-rule="evenodd" clip-rule="evenodd" d="M3.4381 32.2305C1.58006 34.4527 0.167245 36.9579 0.0722656 40.3483V71.5972C0.0722656 72.2361 0.322434 72.8488 0.767736 73.3005C1.21304 73.7523 1.817 74.006 2.44675 74.006H56.6503C57.28 74.006 57.884 73.7523 58.3293 73.3005C58.7746 72.8488 59.0248 72.2361 59.0248 71.5972V43.1065C59.0625 40.2247 58.7313 37.3502 58.0394 34.555C56.4544 27.7741 53.5516 20.3548 51.3493 13.4414C50.0492 9.82815 47.3957 8.43101 43.9646 8.28046H31.742C29.4803 8.28046 28.2752 8.11786 26.0966 8.88267C24.2124 9.50248 22.4731 10.5067 20.9855 11.8335L3.4381 32.2305ZM30.151 17.4642C29.5574 16.862 29.783 16.1454 30.4538 16.1153H41.9344C42.5728 16.2234 43.1705 16.5043 43.6647 16.9282C44.1588 17.3522 44.5311 17.9035 44.7423 18.5241L49.6871 32.375C49.972 33.2422 49.414 33.6939 48.5652 32.9411L30.151 17.4642Z" fill="#46DBBF"/>
<path fill-rule="evenodd" clip-rule="evenodd" d="M1.39501 7.82878H2.58225V6.38949H0.718282C0.527781 6.38949 0.345084 6.31271 0.21038 6.17606C0.0756759 6.03941 0 5.85406 0 5.66081L0 0.728678C0 0.535421 0.0756759 0.350079 0.21038 0.213425C0.345084 0.0767712 0.527781 0 0.718282 0L20.5037 0C20.6942 0 20.8769 0.0767712 21.0116 0.213425C21.1463 0.350079 21.222 0.535421 21.222 0.728678V5.66081C21.222 5.85406 21.1463 6.03941 21.0116 6.17606C20.8769 6.31271 20.6942 6.38949 20.5037 6.38949H18.6575V7.82878H20.3434C20.5872 7.83434 20.8234 7.91594 21.0199 8.06248C21.2164 8.20901 21.3636 8.41338 21.4416 8.64779L2.29138 30.0324C0.629238 32.1401 0.261193 31.9173 0.237448 30.1829V9.0332C0.237448 8.71377 0.362533 8.40742 0.585184 8.18155C0.807835 7.95567 1.10981 7.82878 1.42469 7.82878H1.39501ZM1.5731 1.24056H2.606V5.13688H1.5731V1.2526V1.24056ZM18.705 1.24056H19.7438V5.13688H18.705V1.2526V1.24056ZM15.8497 1.24056H16.8885V5.13688H15.8497V1.2526V1.24056ZM12.9944 1.24056H14.0332V5.13688H12.9944V1.2526V1.24056ZM10.139 1.24056H11.1779V5.13688H10.139V1.2526V1.24056ZM7.28373 1.24056H8.31069V5.13688H7.28373V1.2526V1.24056ZM4.42841 1.24056H5.46725V5.13688H4.42841V1.2526V1.24056Z" fill="#46DBBF"/>
<path fill-rule="evenodd" clip-rule="evenodd" d="M9.75345 37.5299H48.0836C48.8336 37.5331 49.552 37.8368 50.0823 38.3748C50.6127 38.9128 50.912 39.6416 50.9151 40.4025V63.8346C50.9058 64.5908 50.6035 65.3128 50.0737 65.8447C49.5438 66.3765 48.829 66.6756 48.0836 66.6771H9.75345C9.00805 66.6756 8.29318 66.3765 7.76334 65.8447C7.23349 65.3128 6.93123 64.5908 6.92188 63.8346V40.4025C6.92344 39.6411 7.22227 38.9114 7.75296 38.373C8.28364 37.8347 9.00295 37.5315 9.75345 37.5299Z" fill="#2A3C4E" stroke="#46DBBF" stroke-width="0.48" stroke-miterlimit="22.93"/>
<path fill-rule="evenodd" clip-rule="evenodd" d="M28.8794 41.7334C29.6215 44.9553 32.2156 48.0567 33.8658 51.0617C36.6618 56.1504 34.5544 61.4439 28.8794 61.4439C22.6939 61.4439 21.1624 55.6987 24.2492 50.4535C25.8935 47.6351 28.1968 44.7324 28.8794 41.7334ZM24.5875 53.9644C24.5771 53.7908 24.6338 53.62 24.7455 53.4881C24.8572 53.3563 25.0152 53.2737 25.1859 53.2581C25.3566 53.2424 25.5265 53.2948 25.6598 53.4042C25.793 53.5136 25.879 53.6713 25.8994 53.8439C25.955 54.6818 26.1729 55.5004 26.5406 56.2528C26.9124 56.971 27.4788 57.5664 28.173 57.9691C29.4077 58.7038 27.3301 60.667 25.3771 56.8731C24.9326 55.9659 24.6646 54.9804 24.5875 53.9704V53.9644Z" fill="#46DBBF"/>
</g>
<defs>
<clipPath id="clip0_1_3554">
<rect width="59" height="74" fill="white"/>
</clipPath>
</defs>
</svg>
