<svg width="150" height="45" viewBox="0 0 150 45" fill="none" xmlns="http://www.w3.org/2000/svg">
<rect width="150" height="45" rx="6" fill="white"/>
<path d="M115.773 26.723C115.759 26.726 115.745 26.725 115.731 26.727L115.803 26.717C115.793 26.718 115.783 26.723 115.773 26.725V26.723ZM67.351 30.123C67.3539 30.349 67.3103 30.5733 67.2229 30.7818C67.1355 30.9902 67.0062 31.1786 66.843 31.335C66.6852 31.4976 66.4959 31.6263 66.2866 31.7132C66.0774 31.8 65.8526 31.8432 65.626 31.84H62.209C61.5315 31.8504 60.859 31.7222 60.2329 31.4632C59.6067 31.2042 59.0402 30.82 58.568 30.334C57.56 29.329 57.068 28.12 57.068 26.704V19.821C57.068 19.336 57.235 18.929 57.571 18.598C57.907 18.267 58.317 18.103 58.801 18.103C59.0262 18.0997 59.2497 18.1428 59.4576 18.2297C59.6654 18.3166 59.8531 18.4454 60.009 18.608C60.345 18.944 60.514 19.348 60.514 19.82V22.313H65.366C65.806 22.313 66.184 22.469 66.499 22.781C66.814 23.093 66.971 23.467 66.971 23.905C66.9738 24.1146 66.9335 24.3224 66.8527 24.5158C66.7719 24.7091 66.6521 24.8838 66.501 25.029C66.3542 25.1796 66.1784 25.2987 65.9841 25.3792C65.7898 25.4596 65.5812 25.4997 65.371 25.497H60.514V26.703C60.514 27.176 60.679 27.578 61.011 27.909C61.343 28.24 61.745 28.405 62.219 28.405H65.619C66.092 28.405 66.499 28.575 66.836 28.911C66.9992 29.0674 67.1285 29.2558 67.2159 29.4642C67.3033 29.6727 67.3469 29.897 67.344 30.123H67.351ZM107.267 30.123C107.27 30.349 107.227 30.5732 107.139 30.7816C107.052 30.9901 106.923 31.1785 106.76 31.335C106.602 31.4976 106.413 31.6262 106.204 31.7131C105.995 31.7999 105.77 31.8431 105.544 31.84H103.996C103.318 31.8506 102.646 31.7224 102.019 31.4634C101.393 31.2044 100.826 30.8201 100.354 30.334C99.8672 29.8645 99.4821 29.3001 99.2223 28.6757C98.9626 28.0513 98.8338 27.3802 98.844 26.704V19.821C98.844 19.336 99.011 18.929 99.347 18.598C99.683 18.267 100.092 18.103 100.577 18.103C100.802 18.0997 101.026 18.1428 101.234 18.2297C101.441 18.3166 101.629 18.4454 101.785 18.608C101.947 18.7648 102.076 18.9533 102.163 19.1617C102.249 19.3702 102.292 19.5942 102.289 19.82V22.313H105.282C105.493 22.31 105.702 22.35 105.896 22.4304C106.091 22.5109 106.267 22.6302 106.414 22.781C106.729 23.093 106.886 23.467 106.886 23.905C106.889 24.1146 106.849 24.3224 106.768 24.5158C106.687 24.7091 106.567 24.8838 106.416 25.029C106.269 25.1796 106.093 25.2987 105.899 25.3792C105.705 25.4596 105.496 25.4997 105.286 25.497H102.289V26.703C102.289 27.176 102.454 27.578 102.786 27.909C103.118 28.24 103.52 28.405 103.994 28.405H105.544C106.017 28.405 106.424 28.575 106.761 28.911C106.924 29.0675 107.053 29.2559 107.14 29.4644C107.228 29.6728 107.271 29.897 107.268 30.123H107.267ZM98.267 30.123C98.267 30.593 98.097 30.998 97.76 31.335C97.6023 31.4977 97.413 31.6264 97.2037 31.7133C96.9944 31.8001 96.7696 31.8432 96.543 31.84H94.995C93.575 31.84 92.362 31.338 91.355 30.334C90.8679 29.8647 90.4823 29.3003 90.2222 28.6759C89.9622 28.0515 89.8331 27.3803 89.843 26.704V19.821C89.838 19.5935 89.8801 19.3674 89.9666 19.1569C90.0532 18.9464 90.1824 18.7561 90.346 18.598C90.682 18.268 91.092 18.103 91.576 18.103C91.8012 18.0997 92.0247 18.1428 92.2326 18.2297C92.4404 18.3166 92.6281 18.4454 92.784 18.608C93.12 18.944 93.289 19.348 93.289 19.82V22.313H96.281C96.721 22.313 97.099 22.469 97.414 22.781C97.5658 22.9257 97.686 23.1003 97.7671 23.2937C97.8481 23.4872 97.8883 23.6953 97.885 23.905C97.8878 24.1146 97.8475 24.3224 97.7667 24.5158C97.6859 24.7091 97.5661 24.8838 97.415 25.029C97.102 25.329 96.715 25.497 96.287 25.497H93.279V26.703C93.279 27.176 93.444 27.578 93.776 27.909C94.108 28.24 94.51 28.405 94.984 28.405H96.534C97.007 28.405 97.414 28.575 97.751 28.911C97.914 29.0675 98.0431 29.2559 98.1303 29.4644C98.2175 29.6728 98.261 29.897 98.258 30.123H98.267ZM83.969 27.035C83.969 28.36 83.499 29.491 82.555 30.431C82.1138 30.886 81.584 31.2457 80.9984 31.488C80.4128 31.7303 79.7837 31.8501 79.15 31.84C77.936 31.84 76.867 31.44 75.943 30.61C75.0772 31.4126 73.9365 31.8525 72.756 31.839C72.1222 31.8487 71.4931 31.7287 70.9074 31.4864C70.3217 31.2441 69.7917 30.8846 69.35 30.43C68.8945 29.9909 68.534 29.4629 68.291 28.8787C68.0479 28.2945 67.9274 27.6666 67.937 27.034V23.679C67.9319 23.4658 67.9715 23.2539 68.0531 23.0569C68.1347 22.8599 68.2566 22.6821 68.411 22.535C68.726 22.235 69.106 22.071 69.548 22.071C69.7591 22.0674 69.9686 22.1067 70.1641 22.1864C70.3595 22.2662 70.5367 22.3848 70.685 22.535C71.001 22.835 71.159 23.235 71.159 23.68V27.037C71.1553 27.2465 71.1946 27.4546 71.2746 27.6483C71.3546 27.842 71.4735 28.0172 71.624 28.163C71.7715 28.3122 71.9477 28.4301 72.1418 28.5097C72.336 28.5892 72.5442 28.6288 72.754 28.626C73.184 28.626 73.554 28.473 73.854 28.163C74.0043 28.0171 74.123 27.8418 74.2029 27.6482C74.2827 27.4545 74.3219 27.2465 74.318 27.037V23.697C74.318 23.257 74.478 22.875 74.793 22.553C74.9427 22.397 75.123 22.2735 75.3226 22.1904C75.5222 22.1073 75.7368 22.0663 75.953 22.07C76.1652 22.0672 76.3757 22.1076 76.5718 22.189C76.7678 22.2703 76.9451 22.3908 77.093 22.543C77.41 22.859 77.568 23.237 77.568 23.679V27.036C77.5599 27.2448 77.5946 27.4531 77.6701 27.6479C77.7456 27.8428 77.8601 28.0202 78.0068 28.169C78.1534 28.3179 78.329 28.4352 78.5227 28.5136C78.7164 28.592 78.9241 28.6299 79.133 28.625C79.576 28.625 79.953 28.472 80.263 28.162C80.4135 28.0162 80.5324 27.841 80.6124 27.6473C80.6924 27.4536 80.7317 27.2455 80.728 27.036V23.679C80.728 23.237 80.886 22.859 81.202 22.543C81.3492 22.3907 81.526 22.2702 81.7215 22.1888C81.9171 22.1075 82.1272 22.067 82.339 22.07C82.782 22.07 83.161 22.228 83.477 22.543C83.793 22.858 83.95 23.236 83.95 23.678V27.033L83.969 27.035ZM88.624 19.435C88.6271 19.6611 88.5837 19.8855 88.4965 20.0942C88.4093 20.3028 88.2801 20.4914 88.117 20.648C87.9594 20.8106 87.7702 20.9392 87.5611 21.0261C87.352 21.1129 87.1274 21.1561 86.901 21.153C86.6745 21.1558 86.4498 21.1124 86.2406 21.0256C86.0314 20.9388 85.842 20.8103 85.684 20.648C85.5213 20.4913 85.3924 20.3029 85.3054 20.0944C85.2183 19.886 85.175 19.6619 85.178 19.436C85.178 18.964 85.348 18.56 85.684 18.224C85.8417 18.0613 86.031 17.9326 86.2403 17.8457C86.4496 17.7589 86.6744 17.7158 86.901 17.719C87.1274 17.7158 87.3521 17.7589 87.5612 17.8458C87.7703 17.9326 87.9595 18.0613 88.117 18.224C88.455 18.56 88.624 18.964 88.624 19.436V19.435ZM88.624 30.112C88.6267 30.3382 88.5831 30.5626 88.4959 30.7714C88.4087 30.9801 88.2798 31.1689 88.117 31.326C87.9595 31.4887 87.7703 31.6174 87.5612 31.7042C87.3521 31.7911 87.1274 31.8342 86.901 31.831C86.428 31.831 86.023 31.663 85.684 31.326C85.5212 31.169 85.3923 30.9802 85.3052 30.7714C85.2182 30.5626 85.1749 30.3382 85.178 30.112V23.782C85.178 23.31 85.348 22.905 85.684 22.569C85.8416 22.4061 86.0309 22.2772 86.2402 22.1902C86.4495 22.1032 86.6744 22.0599 86.901 22.063C87.1275 22.0599 87.3522 22.1032 87.5613 22.1902C87.7705 22.2773 87.9596 22.4062 88.117 22.569C88.455 22.905 88.624 23.309 88.624 23.782V30.112ZM127.759 23.895C127.759 24.332 127.602 24.707 127.287 25.019C127.141 25.1699 126.965 25.2893 126.771 25.3698C126.577 25.4503 126.368 25.4902 126.158 25.487H123.806C123.366 25.487 122.993 25.641 122.686 25.947C122.536 26.0915 122.418 26.2652 122.339 26.4574C122.259 26.6496 122.22 26.8561 122.224 27.064V30.234C122.224 30.672 122.068 31.048 121.754 31.361C121.608 31.512 121.433 31.6316 121.239 31.7125C121.045 31.7933 120.837 31.8336 120.627 31.831C120.19 31.831 119.812 31.675 119.499 31.361C119.348 31.2156 119.228 31.0408 119.147 30.8473C119.066 30.6538 119.026 30.4457 119.029 30.236V27.066C119.019 26.439 119.139 25.8167 119.38 25.2377C119.62 24.6587 119.978 24.1353 120.429 23.7C120.867 23.2489 121.393 22.8923 121.973 22.6518C122.554 22.4114 123.178 22.2924 123.807 22.302H126.157C126.367 22.299 126.576 22.3391 126.771 22.4199C126.965 22.5008 127.141 22.6206 127.287 22.772C127.439 22.9163 127.559 23.0907 127.64 23.284C127.721 23.4774 127.761 23.6854 127.757 23.895H127.759ZM112.662 31.83C111.306 31.83 110.028 31.314 109.02 30.284C108.012 29.254 107.625 28.131 107.625 26.678C107.625 26.678 107.527 22.06 112.751 22.06C116.838 22.06 118.081 24.93 118.081 26.348C118.081 27.474 117.566 27.874 116.393 27.874H111.169C111.169 27.874 110.969 29.069 113.369 29.069H116.349C116.53 29.069 116.71 29.1047 116.877 29.174C117.045 29.2434 117.197 29.345 117.325 29.4732C117.453 29.6013 117.555 29.7535 117.624 29.9209C117.693 30.0883 117.729 30.2678 117.729 30.449C117.729 30.6302 117.693 30.8097 117.624 30.9771C117.555 31.1445 117.453 31.2967 117.325 31.4248C117.197 31.553 117.045 31.6546 116.877 31.724C116.71 31.7933 116.53 31.829 116.349 31.829H112.669L112.662 31.83ZM111.204 25.695H114.634C114.634 24.568 112.928 24.568 112.928 24.568C112.928 24.568 111.204 24.568 111.204 25.695ZM52.289 21.637C51.222 21.819 49.676 21.629 48.856 21.287C50.559 21.147 51.712 20.373 52.156 19.322C51.542 19.7 49.636 20.122 48.586 19.719L48.418 19.023C47.618 16.077 44.871 13.703 41.996 13.99L42.701 13.728C43.016 13.615 44.874 13.312 44.581 12.658C44.334 12.08 42.064 13.092 41.637 13.225C42.201 13.025 43.135 12.649 43.234 12C42.3508 12.1308 41.5266 12.5214 40.866 13.122C41.104 12.867 41.283 12.557 41.321 12.222C39.015 13.697 37.668 16.668 36.579 19.552C35.723 18.722 34.963 18.067 34.283 17.702C32.375 16.679 30.083 15.61 26.51 14.278C26.41 15.465 27.096 17.043 29.11 18.092C28.676 18.032 27.882 18.164 27.248 18.315C27.506 19.675 28.351 20.795 30.64 21.335C29.594 21.405 29.053 21.635 28.564 22.155C29.04 23.102 30.204 24.215 32.294 23.985C29.968 24.989 31.344 26.847 33.238 26.57C30.011 29.908 24.922 29.67 22 26.87C29.628 37.277 46.213 33.024 48.683 23C50.537 23.015 51.623 22.358 52.298 21.634L52.289 21.637Z" fill="#1DA1F2"/>
</svg>
