<svg width="66" height="67" viewBox="0 0 66 67" fill="none" xmlns="http://www.w3.org/2000/svg">
<path d="M23.8142 21.4391C24.4018 21.4391 25.0018 21.6602 25.4425 22.1055L32.5046 29.0472L34.4933 27.0924L25.3295 18.085C27.3408 14.1088 27.1148 9.21081 24.3464 5.3235C21.6334 1.53615 17.1927 -0.32976 12.8198 0.0478639L18.6628 8.2323C19.4639 9.36629 19.1814 10.9101 18.0402 11.6987L11.7249 16.0636C10.5723 16.851 9.00059 16.5856 8.19946 15.4516L2.3452 7.25603C0.504512 11.1878 0.7757 15.9292 3.47514 19.7165C6.68532 24.2047 12.3351 25.9928 17.43 24.5601L27.2504 34.2117L29.2493 32.257L22.1871 25.3154C21.2843 24.4257 21.2843 22.9941 22.1871 22.1055C22.6289 21.6602 23.2266 21.4391 23.8142 21.4391ZM63.7578 47.383C60.6279 42.9082 55.081 41.0534 50.0301 42.364L40.6064 33.1011L38.6165 35.0558L44.9453 41.2744C45.8482 42.164 45.8482 43.5957 44.9453 44.4853C44.4934 44.9296 43.9058 45.1517 43.3058 45.1517C42.7182 45.1517 42.1318 44.9296 41.6787 44.4853L35.3521 38.2545L33.3634 40.2204L41.9725 48.6825C39.8606 52.6587 39.9951 57.6133 42.7533 61.5673C45.4199 65.3879 49.8493 67.286 54.2335 66.9651L48.4697 58.7129C47.6798 57.5789 47.9736 56.0473 49.125 55.2576L55.4878 50.9605C56.6403 50.183 58.2109 50.4718 59.0121 51.5935L64.7635 59.8457C66.6505 55.9473 66.4256 51.1926 63.7578 47.383Z" fill="#46DBBF"/>
<path d="M31.1384 44.9296C30.7102 45.3505 30.013 45.3505 29.5848 44.9296L22.4593 37.9258C22.0299 37.5037 22.0299 36.8207 22.4593 36.3986L22.8412 36.0232C23.2684 35.6022 23.9655 35.6022 24.3949 36.0232L31.5204 43.0281C31.9486 43.4491 31.9486 44.1343 31.5204 44.5553L31.1384 44.9296Z" fill="#46DBBF"/>
<path d="M27.9758 46.4848L10.4842 65.2327C9.88532 65.8213 9.20623 66.2645 8.46047 66.5533C7.8955 66.7876 7.31922 66.9198 6.73278 66.9653C6.54068 66.9875 6.3486 66.9986 6.14521 66.9986C4.57458 67.0086 3.00283 66.4211 1.80509 65.2427C-0.601697 62.8781 -0.601697 59.0563 1.80509 56.7028L20.8673 39.5098L27.9758 46.4848Z" fill="#46DBBF"/>
<path d="M59.8716 10.8202L56.9122 15.3972L54.2908 16.4967L30.7754 39.6196L27.8601 36.754L51.3856 13.6312L52.5043 11.0656L57.1608 8.15458L57.4083 8.40003L53.9744 11.2211C53.3744 11.8097 53.6455 13.0759 54.2455 13.6757C54.8659 14.2754 56.1879 14.6297 56.7992 14.0311L59.6128 10.5658L59.8716 10.8202Z" fill="#46DBBF"/>
</svg>
