<svg width="150" height="45" viewBox="0 0 150 45" fill="none" xmlns="http://www.w3.org/2000/svg">
<rect width="150" height="45" rx="6" fill="#FF3C3C"/>
<path d="M122.338 15.9392H119.351V31.8215H116.417V15.9392H113.435V13.5032H122.338V15.9392ZM122.99 13.5032H126.127L127.103 21.7343C127.379 24.093 127.635 26.123 127.935 28.907H128.06C128.336 26.123 128.611 24.1413 128.882 21.7343L129.887 13.5032H133L129.989 31.7925H126.025L122.99 13.5032ZM46.8265 15.3398C46.6537 14.6937 46.3153 14.1038 45.8449 13.6283C45.3745 13.1528 44.7883 12.8081 44.144 12.6283C41.7612 12 32.2298 12 32.2298 12C32.2298 12 22.6937 12 20.3108 12.6283C19.6652 12.8037 19.0772 13.1463 18.6062 13.6215C18.1352 14.0967 17.7979 14.6878 17.6283 15.335C17 17.7178 17 22.6623 17 22.6623C17 22.6623 17 27.631 17.6283 29.9897C17.8031 30.6382 18.1451 31.2296 18.6201 31.7045C19.0951 32.1795 19.6864 32.5215 20.335 32.6963C22.6937 33.3247 32.225 33.3247 32.225 33.3247C32.225 33.3247 41.7612 33.3247 44.144 32.6963C44.7871 32.5184 45.3738 32.1783 45.8477 31.7086C46.3217 31.2389 46.667 30.6553 46.8507 30.0138C47.479 27.631 47.479 22.6865 47.479 22.6865C47.479 22.6865 47.4548 17.7178 46.8265 15.3398ZM29.1897 27.2298V18.0948L37.1163 22.6623L29.1897 27.2298ZM61.2298 31.4203C60.5777 30.9679 60.1203 30.2861 59.949 29.5112C59.6738 28.3953 59.547 27.2479 59.572 26.0988V24.1655C59.5452 22.9958 59.6968 21.8289 60.0215 20.7048C60.2411 19.9338 60.7189 19.2615 61.3748 18.8005C62.1143 18.3751 62.9583 18.1658 63.8108 18.1963C64.792 18.1963 65.5943 18.3993 66.1937 18.8005C66.822 19.2742 67.3005 19.9267 67.4987 20.7048C67.7983 21.8358 67.953 22.9862 67.8998 24.1655V26.0988C67.924 27.254 67.8032 28.4092 67.4987 29.5353C67.3014 30.3052 66.8394 30.9811 66.1937 31.4445C65.5943 31.8457 64.763 32.0438 63.7383 32.0438C62.6847 32.0197 61.8292 31.8215 61.225 31.4155L61.2298 31.4203ZM64.6132 29.313C64.792 28.8828 64.8645 28.153 64.8645 27.1767V23.0393C64.8941 22.328 64.8092 21.6165 64.6132 20.932C64.5614 20.7391 64.4478 20.5684 64.2898 20.4462C64.1318 20.324 63.9381 20.257 63.7383 20.2553C63.5406 20.2563 63.3489 20.3234 63.1939 20.4461C63.0388 20.5688 62.9293 20.7398 62.8828 20.932C62.6847 21.6087 62.6073 22.3337 62.6315 23.0393V27.2008C62.6315 28.182 62.7088 28.907 62.8828 29.3372C62.9795 29.7383 63.3372 30.0138 63.7625 29.9897C63.9594 29.9876 64.15 29.92 64.304 29.7974C64.4581 29.6749 64.5669 29.5044 64.6132 29.313ZM107.533 26.123V26.7997C107.533 27.4522 107.562 28.0805 107.611 28.733C107.632 29.0668 107.746 29.3881 107.939 29.661C108.036 29.7626 108.153 29.842 108.283 29.8938C108.413 29.9455 108.553 29.9683 108.693 29.9607C108.882 29.9736 109.071 29.9306 109.236 29.8369C109.401 29.7432 109.535 29.603 109.621 29.4338C109.795 29.0858 109.872 28.5058 109.897 27.6793L112.478 27.8533C112.502 28.0133 112.511 28.175 112.507 28.3367C112.507 29.5595 112.178 30.4875 111.501 31.0917C110.825 31.6958 109.872 31.9955 108.64 31.9955C107.161 31.9955 106.132 31.517 105.532 30.5938C104.933 29.6707 104.628 28.2303 104.628 26.2728V23.9432C104.628 21.9325 104.928 20.4777 105.556 19.5497C106.185 18.6217 107.238 18.1722 108.717 18.1722C109.747 18.1722 110.549 18.3703 111.1 18.7522C111.68 19.1775 112.101 19.801 112.28 20.5067C112.531 21.5845 112.657 22.7107 112.603 23.8175V26.0988L107.538 26.123H107.533ZM107.915 20.5067C107.729 20.7814 107.623 21.1029 107.611 21.4347C107.562 22.0861 107.538 22.739 107.538 23.3922V24.3443H109.747V23.3922C109.747 22.7397 109.718 22.0872 109.645 21.4347C109.624 21.1008 109.51 20.7795 109.317 20.5067C109.229 20.4094 109.12 20.3339 108.999 20.2861C108.877 20.2383 108.746 20.2195 108.616 20.2312C108.485 20.2175 108.354 20.2354 108.232 20.2833C108.11 20.3313 108.001 20.4079 107.915 20.5067ZM53.9025 25.8717L50.4902 13.5032H53.4772L54.6807 19.1002C54.9803 20.4777 55.2075 21.6618 55.3573 22.6382H55.454C55.5603 21.9325 55.7827 20.7822 56.1307 19.1243L57.3873 13.5032H60.3743L56.9137 25.8765V31.8215H53.9267V25.8765H53.9025V25.8717ZM77.61 18.4477V31.8215H75.2513L75 30.1878H74.9227C74.2943 31.4203 73.318 32.0438 72.042 32.0438C71.1623 32.0438 70.5098 31.7442 70.0845 31.169C69.6543 30.589 69.4562 29.6852 69.4562 28.4333V18.4477H72.4673V28.2593C72.4456 28.6937 72.513 29.128 72.6655 29.5353C72.723 29.6571 72.8163 29.7584 72.9329 29.8257C73.0495 29.8931 73.1838 29.9233 73.318 29.9123C73.5888 29.9059 73.8515 29.8184 74.072 29.661C74.3037 29.5185 74.4872 29.3097 74.5988 29.0617V18.4477H77.61ZM93.038 18.4477V31.8215H90.6793L90.428 30.1878H90.3507C89.7223 31.4203 88.746 32.0438 87.47 32.0438C86.5903 32.0438 85.9378 31.7442 85.5125 31.169C85.0823 30.589 84.8842 29.6852 84.8842 28.4333V18.4477H87.8953V28.2593C87.8736 28.6937 87.941 29.128 88.0935 29.5353C88.151 29.6571 88.2443 29.7584 88.3609 29.8257C88.4775 29.8931 88.6118 29.9233 88.746 29.9123C89.0168 29.9059 89.2795 29.8184 89.5 29.661C89.7317 29.5185 89.9152 29.3097 90.0268 29.0617V18.4477H93.038ZM85.788 15.9343H82.801V31.8215H79.8672V15.9392H76.8802V13.5032H85.788V15.9392V15.9343ZM102.995 20.5792C102.821 19.7527 102.521 19.1292 102.12 18.7473C101.651 18.3505 101.051 18.1436 100.438 18.1673C99.8817 18.1647 99.3383 18.3335 98.8815 18.6507C98.409 18.9516 98.0279 19.3762 97.7795 19.8783H97.7553V12.8265H94.8698V31.8215H97.3542L97.6538 30.5648H97.7263C97.9618 31.0215 98.3288 31.3969 98.78 31.6427C99.2583 31.9013 99.7926 32.039 100.336 32.0438C100.808 32.055 101.273 31.9284 101.674 31.6794C102.075 31.4305 102.394 31.07 102.593 30.6422C103.072 29.7142 103.318 28.2303 103.318 26.2487V24.1413C103.301 22.9474 103.193 21.7566 102.995 20.5792ZM100.24 26.0263C100.24 26.7755 100.211 27.5537 100.114 28.3077C100.082 28.7292 99.9426 29.1354 99.708 29.487C99.6177 29.5981 99.5034 29.6871 99.3736 29.7474C99.2438 29.8077 99.1019 29.8377 98.9588 29.835C98.7213 29.8429 98.4864 29.7825 98.2822 29.661C98.0725 29.531 97.8995 29.3497 97.7795 29.1342V21.5603C97.8742 21.2186 98.0557 20.9073 98.3063 20.6565C98.4081 20.545 98.532 20.456 98.6702 20.3953C98.8084 20.3345 98.9577 20.3033 99.1087 20.3037C99.3842 20.3037 99.6597 20.4293 99.8095 20.6565C100.012 21.0335 100.138 21.4298 100.162 21.86C100.235 22.6623 100.259 23.4647 100.259 24.267L100.235 26.0263H100.24Z" fill="white"/>
</svg>
